<?xml version="1.0" encoding="utf-8"?>
<!-- Svg Vector Icons : http://www.onlinewebfonts.com/icon -->
<!DOCTYPE svg PUBLIC "-//W3C//DTD SVG 1.1//EN" "http://www.w3.org/Graphics/SVG/1.1/DTD/svg11.dtd">
<svg version="1.1" xmlns="http://www.w3.org/2000/svg" xmlns:xlink="http://www.w3.org/1999/xlink" x="0px" y="0px" viewBox="0 0 256 256" enable-background="new 0 0 256 256" xml:space="preserve">
<metadata> Svg Vector Icons : http://www.onlinewebfonts.com/icon </metadata>
<g><g><g><path fill="#000000" d="M119.1,10.1c-23.3,2.1-44.2,10-62.6,23.8c-5.8,4.3-18.4,16.9-22.7,22.7C21.5,73,14.1,91,10.8,111.8c-1.1,7.4-1.1,24.9,0,32.3c2.2,14.1,5.8,25.5,11.8,37.3c6.1,12,11.9,19.8,22,29.9C55.2,221.9,63,227.5,76,233.9c8.3,4.1,13.7,6.1,22.1,8.3c34.9,9.2,71.8,1.8,101.2-20.1c5.8-4.3,18.4-16.9,22.7-22.7c19.8-26.5,27.8-59,22.4-91C241,88.7,232.1,69,219.5,53.4c-4.5-5.6-14.7-15.4-20.2-19.5c-16.2-12.2-34.5-19.8-54.8-22.9C139.8,10.3,123.6,9.7,119.1,10.1z M140.1,17.7c43.4,4.5,80.8,35.5,93.9,77.7c3.2,10.3,4.7,20.6,4.7,32.5c0,12.7-1.6,23.2-5.3,34.4c-11.1,33.8-37.3,60-71.1,71.1c-17.9,5.9-38.7,7-57.7,3c-38.3-8-70.3-37-82.4-74.7c-5.9-18.2-6.8-39.5-2.5-58.3c8.6-38.3,37-69.3,74.3-81.2C108.6,17.6,124.2,16.1,140.1,17.7z"/><path fill="#000000" d="M107.4,78l-1.7,1.8v9.3v9.3H87.3H68.8v31.9c0,19.5,0.2,33.1,0.5,35c0.6,4,2.8,8.3,5.2,10.4c1.2,1,3.1,2,5.2,2.7l3.2,1h45h45l3.2-1c3.9-1.2,6.5-3.3,8.3-6.6c2.4-4.5,2.5-6.6,2.6-41.5V98.4h-18.5H150v-9.2V80l-1.7-1.8l-1.7-1.8h-18.8h-18.8L107.4,78z M142.7,91v7.4h-14.8h-14.8V91v-7.4h14.8h14.8V91z M179.6,116.9V128h-18.5h-18.5v-3.7v-3.7h-14.8h-14.8v3.7v3.7H94.7H76.2v-11.1v-11.1h51.7h51.7L179.6,116.9L179.6,116.9z M135.3,131.6v3.7h-7.4h-7.4v-3.7V128h7.4h7.4V131.6z M113.1,139v3.7h14.8h14.8V139v-3.7h18.5h18.5l-0.2,14.9c-0.2,15.9-0.4,17-2.5,19.3c-2.3,2.5-1.8,2.5-49,2.5c-47.2,0-46.7,0-49-2.5c-2.2-2.4-2.4-3.5-2.5-19.3l-0.1-14.9h18.5h18.5L113.1,139L113.1,139z"/></g></g></g>
</svg>